<svg width="385" height="58" viewBox="0 0 385 58" fill="none" xmlns="http://www.w3.org/2000/svg">
<path d="M0.496 3.4V1.096H14.64C24.3253 1.096 29.36 1.11733 29.744 1.16C33.2853 1.416 36.4427 2.248 39.216 3.656C44.6773 6.42933 48.1333 10.952 49.584 17.224C49.6693 17.6933 49.7547 18.1627 49.84 18.632C50.5653 22.7707 50.3947 26.6747 49.328 30.344C47.7067 35.8907 44.4213 39.9013 39.472 42.376C37.1253 43.6133 34.288 44.4453 30.96 44.872C30.4907 44.9147 25.264 44.9573 15.28 45H0.496V42.696V40.392H3.952H7.408V23.048V5.704H3.952H0.496V3.4ZM26.736 5.768C26.4373 5.72533 24.7947 5.704 21.808 5.704H17.712V23.048V40.392H22.384C25.7547 40.3493 27.5893 40.3067 27.888 40.264C31.6 39.7947 34.416 38.4933 36.336 36.36C37.9573 34.5253 38.896 31.7093 39.152 27.912C39.3227 24.4987 39.3227 21.32 39.152 18.376C39.1093 18.1627 39.088 17.992 39.088 17.864C38.6613 13.0853 36.976 9.75733 34.032 7.88C33.648 7.66666 33.2427 7.45333 32.816 7.24C31.1947 6.472 29.168 5.98133 26.736 5.768Z" fill="#FF4747"/>
<path d="M71.3975 16.072L75.3015 16.136C81.6162 16.8613 85.8188 19.7627 87.9095 24.84C88.0375 25.1387 88.1655 25.4587 88.2935 25.8C88.8055 27.336 89.0828 28.9147 89.1255 30.536C89.2108 33.9493 88.3575 36.8933 86.5655 39.368C85.6268 40.776 84.3468 41.9493 82.7255 42.888C81.6588 43.6133 80.1868 44.232 78.3095 44.744C76.7735 45.128 74.9388 45.32 72.8055 45.32C70.6722 45.32 68.8375 45.128 67.3015 44.744C65.4242 44.232 63.9522 43.6133 62.8855 42.888C61.2642 41.9493 59.9842 40.776 59.0455 39.368C57.9362 37.7893 57.1682 35.9547 56.7415 33.864C55.9735 29.7253 56.6988 25.9493 58.9175 22.536C59.1735 22.0667 59.4722 21.64 59.8135 21.256C62.2882 18.312 65.8295 16.6053 70.4375 16.136C70.6935 16.0933 71.0135 16.072 71.3975 16.072ZM74.7255 20.104C73.7015 19.9333 72.6562 19.8907 71.5895 19.976C69.9255 20.232 68.7095 20.744 67.9415 21.512C67.0882 22.28 66.5762 23.56 66.4055 25.352C66.3202 26.248 66.2775 27.5707 66.2775 29.32C66.2348 33.8427 66.4482 36.7653 66.9175 38.088C67.5148 39.624 68.9015 40.6267 71.0775 41.096C72.0588 41.2667 73.2108 41.2667 74.5335 41.096C75.8562 40.84 76.8802 40.3493 77.6055 39.624C78.4588 38.8133 78.9708 37.4267 79.1415 35.464C79.1842 34.9947 79.2268 34.4613 79.2695 33.864L79.2055 25.864C79.2055 25.736 79.2055 25.6507 79.2055 25.608C78.9922 23.6453 78.4802 22.28 77.6695 21.512C76.9868 20.8293 76.0055 20.36 74.7255 20.104ZM102.386 0.584C102.471 0.541331 102.855 0.519997 103.538 0.519997C104.263 0.605331 104.733 0.669332 104.946 0.711998C106.61 1.224 107.805 2.20533 108.53 3.656C108.914 4.46666 109.106 5.256 109.106 6.024C109.106 6.83466 108.914 7.624 108.53 8.392C107.805 9.88533 106.61 10.888 104.946 11.4C104.562 11.4853 104.029 11.528 103.346 11.528C102.621 11.528 102.087 11.4853 101.746 11.4C100.039 10.888 98.8233 9.88533 98.098 8.392C97.7567 7.70933 97.586 6.92 97.586 6.024C97.586 5.42666 97.6073 5 97.65 4.744C97.8633 3.976 98.2473 3.25067 98.802 2.568C99.698 1.50133 100.893 0.839999 102.386 0.584ZM102.258 16.456C106.695 16.2853 108.85 16.2 108.722 16.2H109.106V32.712C109.063 43.8907 108.978 49.672 108.85 50.056C108.893 49.9707 108.85 50.12 108.722 50.504C108.082 52.4667 106.738 54.0667 104.69 55.304C103.794 55.8587 102.834 56.3067 101.81 56.648C100.317 57.2453 98.546 57.608 96.498 57.736C95.1753 57.864 93.938 57.8427 92.786 57.672C89.6713 57.0747 87.602 55.688 86.578 53.512C86.2793 52.872 86.13 52.0827 86.13 51.144C86.13 50.248 86.2793 49.48 86.578 48.84C87.1753 47.6027 88.1993 46.8133 89.65 46.472C90.4607 46.2587 91.2713 46.2587 92.082 46.472C93.5327 46.8133 94.5567 47.6027 95.154 48.84C95.4527 49.48 95.602 50.2267 95.602 51.08C95.602 52.0187 95.4527 52.808 95.154 53.448L94.898 53.832L95.282 53.896H96.242C98.1193 53.768 99.442 52.552 100.21 50.248C100.423 49.6507 100.551 47.9653 100.594 45.192C100.594 43.8267 100.594 40.648 100.594 35.656V22.472L100.402 22.216C100.146 21.7467 99.506 21.4693 98.482 21.384C98.1407 21.3413 97.6927 21.32 97.138 21.32H95.73V19.016V16.712H95.922L102.258 16.456ZM121.496 0.839996C125.762 0.669332 127.853 0.584 127.768 0.584H128.152V14.216L128.216 27.848L132.184 24.52L136.216 21.192H135.512H134.872V18.888V16.584H135.448L140.056 16.712C142.701 16.7547 144.834 16.7547 146.456 16.712L149.272 16.584H149.656V18.888V21.192H146.583H143.448L139.8 24.2L136.216 27.272L141.208 33.864L146.2 40.392H148.76H151.256V42.696V45H150.744L147.096 44.872C145.005 44.8293 142.658 44.8293 140.056 44.872C136.984 44.9573 135.469 45 135.512 45H134.872V42.696V40.392H135.576L136.344 40.328L133.208 36.296L130.135 32.264L130.008 32.392C129.794 32.4773 129.41 32.776 128.856 33.288L127.832 34.12V37.256V40.392H130.072H132.248V42.696V45H131.672L127.448 44.872C124.973 44.8293 122.498 44.8293 120.024 44.872C117.25 44.9573 115.842 45 115.799 45H115.224V42.696V40.392H117.464H119.64V23.752C119.64 12.6587 119.597 7.00533 119.512 6.792C119.384 6.36533 119.106 6.088 118.68 5.96C118.082 5.78933 117.208 5.704 116.056 5.704H115.224V3.4V1.096H115.416C115.202 1.096 117.229 1.01066 121.496 0.839996ZM161.651 0.584C161.736 0.541331 162.12 0.519997 162.803 0.519997C163.528 0.605331 163.997 0.669332 164.211 0.711998C165.875 1.224 167.069 2.20533 167.795 3.656C168.179 4.46666 168.371 5.256 168.371 6.024C168.371 6.83466 168.179 7.624 167.795 8.392C167.069 9.88533 165.875 10.888 164.211 11.4C163.827 11.4853 163.293 11.528 162.611 11.528C161.885 11.528 161.352 11.4853 161.01 11.4C159.304 10.888 158.088 9.88533 157.363 8.392C157.021 7.70933 156.851 6.92 156.851 6.024C156.851 5.42666 156.872 5 156.915 4.744C157.128 3.976 157.512 3.25067 158.067 2.568C158.963 1.50133 160.157 0.839999 161.651 0.584ZM161.203 16.456C165.469 16.2853 167.517 16.2 167.347 16.2H167.731V28.296V40.392H169.715H171.699V42.696V45H171.123L167.027 44.872C164.68 44.8293 162.248 44.8293 159.731 44.872L155.379 45H154.803V42.696V40.392H157.043H159.219V31.624C159.219 25.6933 159.197 22.6427 159.155 22.472C158.984 21.96 158.707 21.6613 158.323 21.576C157.725 21.4053 156.872 21.32 155.763 21.32H154.995V19.016V16.712H155.187L161.203 16.456ZM182.152 33.48C182.365 33.4373 182.771 33.416 183.368 33.416C184.691 33.4587 185.864 33.9067 186.888 34.76C187.443 35.1867 187.891 35.72 188.232 36.36C189.341 38.28 189.341 40.2 188.232 42.12C187.891 42.7173 187.443 43.2293 186.888 43.656C186.376 44.1253 185.651 44.5093 184.712 44.808C184.371 44.8933 183.88 44.936 183.24 44.936C182.557 44.936 182.045 44.8933 181.704 44.808C180.509 44.4667 179.528 43.848 178.76 42.952C177.224 41.032 176.947 38.984 177.928 36.808C178.141 36.3387 178.419 35.8907 178.76 35.464C179.187 34.9947 179.741 34.5467 180.424 34.12C180.979 33.864 181.555 33.6507 182.152 33.48ZM210.398 16.072L214.302 16.136C220.616 16.8613 224.819 19.7627 226.91 24.84C227.038 25.1387 227.166 25.4587 227.294 25.8C227.806 27.336 228.083 28.9147 228.126 30.536C228.211 33.9493 227.358 36.8933 225.566 39.368C224.627 40.776 223.347 41.9493 221.726 42.888C220.659 43.6133 219.187 44.232 217.31 44.744C215.774 45.128 213.939 45.32 211.806 45.32C209.672 45.32 207.838 45.128 206.302 44.744C204.424 44.232 202.952 43.6133 201.885 42.888C200.264 41.9493 198.984 40.776 198.046 39.368C196.936 37.7893 196.168 35.9547 195.742 33.864C194.974 29.7253 195.699 25.9493 197.918 22.536C198.174 22.0667 198.472 21.64 198.814 21.256C201.288 18.312 204.83 16.6053 209.438 16.136C209.694 16.0933 210.014 16.072 210.398 16.072ZM213.726 20.104C212.702 19.9333 211.656 19.8907 210.59 19.976C208.926 20.232 207.71 20.744 206.942 21.512C206.088 22.28 205.576 23.56 205.406 25.352C205.32 26.248 205.278 27.5707 205.278 29.32C205.235 33.8427 205.448 36.7653 205.918 38.088C206.515 39.624 207.902 40.6267 210.078 41.096C211.059 41.2667 212.211 41.2667 213.534 41.096C214.856 40.84 215.88 40.3493 216.606 39.624C217.459 38.8133 217.971 37.4267 218.142 35.464C218.184 34.9947 218.227 34.4613 218.27 33.864L218.206 25.864C218.206 25.736 218.206 25.6507 218.206 25.608C217.992 23.6453 217.48 22.28 216.67 21.512C215.987 20.8293 215.006 20.36 213.726 20.104ZM238.442 16.456C242.623 16.2853 244.65 16.2 244.522 16.2H244.906V18.568V20.936L245.418 20.424C246.485 19.3147 247.765 18.4187 249.258 17.736C250.495 17.0533 251.946 16.584 253.61 16.328C254.677 16.1573 256.149 16.136 258.026 16.264C258.197 16.3067 258.346 16.328 258.474 16.328C261.759 16.712 263.978 18.0987 265.13 20.488C265.386 21 265.621 21.7893 265.834 22.856C265.919 23.3253 265.983 26.376 266.026 32.008V40.392H268.266H270.442V42.696V45H269.866L265.386 44.872C262.826 44.8293 260.266 44.8293 257.706 44.872C254.719 44.9573 253.247 45 253.29 45H252.714V42.696V40.392H254.954H257.13V32.392C257.13 26.8453 257.109 23.944 257.066 23.688C256.853 21.512 255.935 20.3173 254.314 20.104C254.015 20.104 253.674 20.104 253.29 20.104C251.242 20.232 249.493 21.0213 248.042 22.472C247.018 23.496 246.335 24.6267 245.994 25.864C245.738 26.5893 245.61 28.424 245.61 31.368C245.61 31.88 245.61 32.776 245.61 34.056V40.392H247.85H250.026V42.696V45H249.45L244.97 44.872C242.41 44.8293 239.85 44.8293 237.29 44.872C234.303 44.9573 232.831 45 232.874 45H232.298V42.696V40.392H234.538H236.714V31.56C236.714 25.672 236.671 22.6213 236.586 22.408C236.458 21.9813 236.181 21.704 235.754 21.576C235.157 21.4053 234.282 21.32 233.13 21.32H232.298V19.016V16.712H232.49C232.277 16.712 234.261 16.6267 238.442 16.456ZM279.637 0.839996C283.904 0.669332 285.994 0.584 285.909 0.584H286.293V20.488V40.392H288.533H290.709V42.696V45H290.133L285.781 44.872C283.264 44.8293 280.768 44.8293 278.293 44.872L273.941 45H273.365V42.696V40.392H275.605H277.781V23.752C277.781 12.6587 277.738 7.00533 277.653 6.792C277.525 6.36533 277.248 6.088 276.821 5.96C276.224 5.78933 275.349 5.704 274.197 5.704H273.365V3.4V1.096H273.557C273.344 1.096 275.37 1.01066 279.637 0.839996ZM300.651 0.584C300.736 0.541331 301.12 0.519997 301.803 0.519997C302.528 0.605331 302.997 0.669332 303.211 0.711998C304.875 1.224 306.069 2.20533 306.795 3.656C307.179 4.46666 307.371 5.256 307.371 6.024C307.371 6.83466 307.179 7.624 306.795 8.392C306.069 9.88533 304.875 10.888 303.211 11.4C302.827 11.4853 302.293 11.528 301.611 11.528C300.885 11.528 300.352 11.4853 300.01 11.4C298.304 10.888 297.088 9.88533 296.363 8.392C296.021 7.70933 295.851 6.92 295.851 6.024C295.851 5.42666 295.872 5 295.915 4.744C296.128 3.976 296.512 3.25067 297.067 2.568C297.963 1.50133 299.157 0.839999 300.651 0.584ZM300.203 16.456C304.469 16.2853 306.517 16.2 306.347 16.2H306.731V28.296V40.392H308.715H310.699V42.696V45H310.123L306.027 44.872C303.68 44.8293 301.248 44.8293 298.731 44.872L294.379 45H293.803V42.696V40.392H296.043H298.219V31.624C298.219 25.6933 298.197 22.6427 298.155 22.472C297.984 21.96 297.707 21.6613 297.323 21.576C296.725 21.4053 295.872 21.32 294.763 21.32H293.995V19.016V16.712H294.187L300.203 16.456ZM320.192 16.456C324.373 16.2853 326.4 16.2 326.272 16.2H326.656V18.568V20.936L327.168 20.424C328.235 19.3147 329.515 18.4187 331.008 17.736C332.245 17.0533 333.696 16.584 335.36 16.328C336.427 16.1573 337.899 16.136 339.776 16.264C339.947 16.3067 340.096 16.328 340.224 16.328C343.509 16.712 345.728 18.0987 346.88 20.488C347.136 21 347.371 21.7893 347.584 22.856C347.669 23.3253 347.733 26.376 347.776 32.008V40.392H350.016H352.192V42.696V45H351.616L347.136 44.872C344.576 44.8293 342.016 44.8293 339.456 44.872C336.469 44.9573 334.997 45 335.04 45H334.464V42.696V40.392H336.704H338.88V32.392C338.88 26.8453 338.859 23.944 338.816 23.688C338.603 21.512 337.685 20.3173 336.064 20.104C335.765 20.104 335.424 20.104 335.04 20.104C332.992 20.232 331.243 21.0213 329.792 22.472C328.768 23.496 328.085 24.6267 327.744 25.864C327.488 26.5893 327.36 28.424 327.36 31.368C327.36 31.88 327.36 32.776 327.36 34.056V40.392H329.6H331.776V42.696V45H331.2L326.72 44.872C324.16 44.8293 321.6 44.8293 319.04 44.872C316.053 44.9573 314.581 45 314.624 45H314.048V42.696V40.392H316.288H318.464V31.56C318.464 25.672 318.421 22.6213 318.336 22.408C318.208 21.9813 317.931 21.704 317.504 21.576C316.907 21.4053 316.032 21.32 314.88 21.32H314.048V19.016V16.712H314.24C314.027 16.712 316.011 16.6267 320.192 16.456ZM369.195 16.072L373.483 16.136C376.512 16.5627 378.944 17.6293 380.779 19.336C382.912 21.4693 384.128 24.3707 384.427 28.04C384.555 29.6187 384.363 30.5787 383.851 30.92C383.68 31.0053 380.438 31.048 374.123 31.048H364.715V32.328C364.843 35.3147 365.44 37.4053 366.507 38.6C366.592 38.6853 366.699 38.792 366.827 38.92C368.064 40.1573 369.942 40.904 372.459 41.16C373.44 41.2453 374.251 41.224 374.891 41.096C377.195 40.7547 378.816 39.6027 379.755 37.64C379.798 37.512 379.84 37.4053 379.883 37.32C380.096 36.7653 380.438 36.4667 380.907 36.424C381.12 36.3813 381.547 36.36 382.187 36.36C383.126 36.36 383.68 36.4027 383.851 36.488C384.363 36.744 384.555 37.192 384.427 37.832C384.171 38.728 383.744 39.56 383.147 40.328C381.227 42.9733 378.219 44.616 374.123 45.256C372.928 45.4267 371.328 45.448 369.323 45.32C369.195 45.2773 369.067 45.256 368.939 45.256C362.027 44.36 357.611 41.1173 355.691 35.528C355.435 34.6747 355.222 33.7787 355.051 32.84C354.88 31.6453 354.88 30.2373 355.051 28.616C355.051 28.488 355.051 28.3813 355.051 28.296C355.52 25.5227 356.523 23.1973 358.059 21.32C358.614 20.552 359.424 19.784 360.491 19.016C362.838 17.3093 365.739 16.328 369.195 16.072ZM372.075 20.04C371.435 19.912 370.624 19.8907 369.643 19.976C367.723 20.3173 366.379 21.2773 365.611 22.856C365.184 23.752 364.907 25.0533 364.779 26.76V27.336H370.731H376.747L376.683 27.016C376.256 23.048 374.72 20.7227 372.075 20.04Z" fill="#F1F1F1"/>
</svg>
